<svg width="20" height="20" viewBox="0 0 20 20" fill="none" xmlns="http://www.w3.org/2000/svg">
<path d="M9.99989 11.1452L14.8674 16.0125C15.184 16.3292 15.696 16.3292 16.0125 16.0125C16.3292 15.6959 16.3292 15.184 16.0125 14.8674L11.1451 9.99994L16.0125 5.13268C16.3292 4.81592 16.3292 4.30418 16.0125 3.98757C15.6959 3.67081 15.184 3.67081 14.8674 3.98757L9.99989 8.85479L5.13241 3.98761C4.81579 3.67085 4.30385 3.67085 3.98727 3.98761C3.91196 4.06271 3.85222 4.15195 3.8115 4.25021C3.77079 4.34847 3.74988 4.4538 3.75 4.56017C3.75 4.76744 3.82934 4.9748 3.98727 5.13272L8.85475 9.99994L3.98727 14.8674C3.91197 14.9425 3.85224 15.0317 3.81152 15.13C3.77081 15.2283 3.7499 15.3336 3.75 15.4399C3.75 15.6472 3.82934 15.8546 3.98727 16.0125C4.30389 16.3292 4.81579 16.3292 5.13241 16.0125L9.99989 11.1452Z" fill="#1E293B"/>
</svg>
