<svg width="20" height="20" viewBox="0 0 20 20" fill="none" xmlns="http://www.w3.org/2000/svg">
<path fill-rule="evenodd" clip-rule="evenodd" d="M2.94444 13.3158C3.19493 13.3158 3.43515 13.4156 3.61227 13.5933C3.78939 13.7709 3.88889 14.0119 3.88889 14.2632V16.1579C3.88889 16.4092 3.98839 16.6501 4.16551 16.8278C4.34263 17.0055 4.58285 17.1053 4.83333 17.1053H16.1667C16.4171 17.1053 16.6574 17.0055 16.8345 16.8278C17.0116 16.6501 17.1111 16.4092 17.1111 16.1579V14.2632C17.1111 14.0119 17.2106 13.7709 17.3877 13.5933C17.5649 13.4156 17.8051 13.3158 18.0556 13.3158C18.306 13.3158 18.5463 13.4156 18.7234 13.5933C18.9005 13.7709 19 14.0119 19 14.2632V16.1579C19 16.9117 18.7015 17.6346 18.1701 18.1676C17.6388 18.7006 16.9181 19 16.1667 19H4.83333C4.08189 19 3.36122 18.7006 2.82986 18.1676C2.29851 17.6346 2 16.9117 2 16.1579V14.2632C2 14.0119 2.0995 13.7709 2.27662 13.5933C2.45374 13.4156 2.69396 13.3158 2.94444 13.3158Z" fill="#334155"/>
<path fill-rule="evenodd" clip-rule="evenodd" d="M5.11006 7.90916C5.28716 7.73155 5.52734 7.63178 5.77778 7.63178C6.02821 7.63178 6.26839 7.73155 6.4455 7.90916L10.5 11.9762L14.5545 7.90916C14.6416 7.81867 14.7458 7.7465 14.8611 7.69685C14.9763 7.6472 15.1002 7.62107 15.2256 7.61997C15.351 7.61888 15.4754 7.64285 15.5915 7.69049C15.7075 7.73812 15.813 7.80846 15.9017 7.89742C15.9903 7.98637 16.0605 8.09214 16.1079 8.20857C16.1554 8.325 16.1793 8.44975 16.1782 8.57554C16.1771 8.70133 16.1511 8.82564 16.1016 8.94122C16.0521 9.05681 15.9801 9.16134 15.8899 9.24874L11.1677 13.9856C10.9906 14.1632 10.7504 14.263 10.5 14.263C10.2496 14.263 10.0094 14.1632 9.83228 13.9856L5.11006 9.24874C4.933 9.07108 4.83353 8.83015 4.83353 8.57895C4.83353 8.32774 4.933 8.08682 5.11006 7.90916Z" fill="#334155"/>
<path fill-rule="evenodd" clip-rule="evenodd" d="M10.5 1C10.7505 1 10.9907 1.09981 11.1678 1.27748C11.3449 1.45514 11.4444 1.69611 11.4444 1.94737V13.3158C11.4444 13.567 11.3449 13.808 11.1678 13.9857C10.9907 14.1633 10.7505 14.2632 10.5 14.2632C10.2495 14.2632 10.0093 14.1633 9.83218 13.9857C9.65506 13.808 9.55556 13.567 9.55556 13.3158V1.94737C9.55556 1.69611 9.65506 1.45514 9.83218 1.27748C10.0093 1.09981 10.2495 1 10.5 1Z" fill="#334155"/>
</svg>
