<svg width="20" height="20" viewBox="0 0 20 20" fill="none" xmlns="http://www.w3.org/2000/svg">
<path d="M14.3163 2.32656V0.908381C14.3163 0.535653 14.0072 0.226562 13.6344 0.226562C13.2617 0.226562 12.9526 0.535653 12.9526 0.908381V2.27202H7.04353V0.908381C7.04353 0.535653 6.73444 0.226562 6.36171 0.226562C5.98899 0.226562 5.6799 0.535653 5.6799 0.908381V2.32656C3.22535 2.55384 2.03444 4.01747 1.85262 6.1902C1.83444 6.45384 2.05262 6.67202 2.30717 6.67202H17.689C17.9526 6.67202 18.1708 6.44474 18.1435 6.1902C17.9617 4.01747 16.7708 2.55384 14.3163 2.32656Z" fill="#334155"/>
<path d="M17.2749 8.03516H2.7294C2.2294 8.03516 1.82031 8.44425 1.82031 8.94425V14.5442C1.82031 17.2715 3.18395 19.0897 6.36577 19.0897H13.6385C16.8203 19.0897 18.1839 17.2715 18.1839 14.5442V8.94425C18.1839 8.44425 17.7749 8.03516 17.2749 8.03516ZM7.46577 15.6442C7.42031 15.6806 7.37486 15.7261 7.3294 15.7533C7.27486 15.7897 7.22031 15.817 7.16577 15.8352C7.11122 15.8624 7.05668 15.8806 7.00213 15.8897C6.93849 15.8988 6.88395 15.9079 6.82031 15.9079C6.70213 15.9079 6.58395 15.8806 6.47486 15.8352C6.35668 15.7897 6.26577 15.7261 6.17486 15.6442C6.01122 15.4715 5.91122 15.2352 5.91122 14.9988C5.91122 14.7624 6.01122 14.5261 6.17486 14.3533C6.26577 14.2715 6.35668 14.2079 6.47486 14.1624C6.63849 14.0897 6.82031 14.0715 7.00213 14.1079C7.05668 14.117 7.11122 14.1352 7.16577 14.1624C7.22031 14.1806 7.27486 14.2079 7.3294 14.2442C7.37486 14.2806 7.42031 14.317 7.46577 14.3533C7.6294 14.5261 7.7294 14.7624 7.7294 14.9988C7.7294 15.2352 7.6294 15.4715 7.46577 15.6442ZM7.46577 12.4624C7.29304 12.6261 7.05668 12.7261 6.82031 12.7261C6.58395 12.7261 6.34759 12.6261 6.17486 12.4624C6.01122 12.2897 5.91122 12.0533 5.91122 11.817C5.91122 11.5806 6.01122 11.3442 6.17486 11.1715C6.4294 10.917 6.8294 10.8352 7.16577 10.9806C7.28395 11.0261 7.38395 11.0897 7.46577 11.1715C7.6294 11.3442 7.7294 11.5806 7.7294 11.817C7.7294 12.0533 7.6294 12.2897 7.46577 12.4624ZM10.6476 15.6442C10.4749 15.8079 10.2385 15.9079 10.0021 15.9079C9.76577 15.9079 9.5294 15.8079 9.35668 15.6442C9.19304 15.4715 9.09304 15.2352 9.09304 14.9988C9.09304 14.7624 9.19304 14.5261 9.35668 14.3533C9.69304 14.017 10.3112 14.017 10.6476 14.3533C10.8112 14.5261 10.9112 14.7624 10.9112 14.9988C10.9112 15.2352 10.8112 15.4715 10.6476 15.6442ZM10.6476 12.4624C10.6021 12.4988 10.5567 12.5352 10.5112 12.5715C10.4567 12.6079 10.4021 12.6352 10.3476 12.6533C10.293 12.6806 10.2385 12.6988 10.1839 12.7079C10.1203 12.717 10.0658 12.7261 10.0021 12.7261C9.76577 12.7261 9.5294 12.6261 9.35668 12.4624C9.19304 12.2897 9.09304 12.0533 9.09304 11.817C9.09304 11.5806 9.19304 11.3442 9.35668 11.1715C9.43849 11.0897 9.53849 11.0261 9.65668 10.9806C9.99304 10.8352 10.393 10.917 10.6476 11.1715C10.8112 11.3442 10.9112 11.5806 10.9112 11.817C10.9112 12.0533 10.8112 12.2897 10.6476 12.4624ZM13.8294 15.6442C13.6567 15.8079 13.4203 15.9079 13.1839 15.9079C12.9476 15.9079 12.7112 15.8079 12.5385 15.6442C12.3749 15.4715 12.2749 15.2352 12.2749 14.9988C12.2749 14.7624 12.3749 14.5261 12.5385 14.3533C12.8749 14.017 13.493 14.017 13.8294 14.3533C13.993 14.5261 14.093 14.7624 14.093 14.9988C14.093 15.2352 13.993 15.4715 13.8294 15.6442ZM13.8294 12.4624C13.7839 12.4988 13.7385 12.5352 13.693 12.5715C13.6385 12.6079 13.5839 12.6352 13.5294 12.6533C13.4749 12.6806 13.4203 12.6988 13.3658 12.7079C13.3021 12.717 13.2385 12.7261 13.1839 12.7261C12.9476 12.7261 12.7112 12.6261 12.5385 12.4624C12.3749 12.2897 12.2749 12.0533 12.2749 11.817C12.2749 11.5806 12.3749 11.3442 12.5385 11.1715C12.6294 11.0897 12.7203 11.0261 12.8385 10.9806C13.0021 10.9079 13.1839 10.8897 13.3658 10.9261C13.4203 10.9352 13.4749 10.9533 13.5294 10.9806C13.5839 10.9988 13.6385 11.0261 13.693 11.0624C13.7385 11.0988 13.7839 11.1352 13.8294 11.1715C13.993 11.3442 14.093 11.5806 14.093 11.817C14.093 12.0533 13.993 12.2897 13.8294 12.4624Z" fill="#334155"/>
</svg>
