<svg width="20" height="20" viewBox="0 0 20 20" fill="none" xmlns="http://www.w3.org/2000/svg">
<path d="M4.61666 16.2657C4.10832 16.2657 3.63332 16.0907 3.29166 15.7657C2.85832 15.3573 2.64999 14.7407 2.72499 14.074L3.03332 11.374C3.09166 10.8657 3.39999 10.1906 3.75832 9.82398L10.6 2.58232C12.3083 0.773983 14.0917 0.723983 15.9 2.43232C17.7083 4.14065 17.7583 5.92398 16.05 7.73232L9.20832 14.974C8.85832 15.349 8.20832 15.699 7.69999 15.7823L5.01666 16.2407C4.87499 16.249 4.74999 16.2657 4.61666 16.2657ZM13.275 2.42398C12.6333 2.42398 12.075 2.82398 11.5083 3.42398L4.66666 10.674C4.49999 10.849 4.30832 11.2657 4.27499 11.5073L3.96666 14.2073C3.93332 14.4823 3.99999 14.7073 4.14999 14.849C4.29999 14.9907 4.52499 15.0407 4.79999 14.999L7.48332 14.5407C7.72499 14.499 8.12499 14.2823 8.29166 14.1073L15.1333 6.86565C16.1667 5.76565 16.5417 4.74898 15.0333 3.33232C14.3667 2.69065 13.7917 2.42398 13.275 2.42398Z" fill="#334155"/>
<path d="M14.4497 9.12504C14.433 9.12504 14.408 9.12504 14.3914 9.12504C11.7914 8.8667 9.69971 6.8917 9.29971 4.30837C9.24971 3.9667 9.48305 3.65004 9.82471 3.5917C10.1664 3.5417 10.483 3.77504 10.5414 4.1167C10.858 6.13337 12.4914 7.68337 14.5247 7.88337C14.8664 7.9167 15.1164 8.22504 15.083 8.5667C15.0414 8.88337 14.7664 9.12504 14.4497 9.12504Z" fill="#334155"/>
<path d="M17.5 18.959H2.5C2.15833 18.959 1.875 18.6757 1.875 18.334C1.875 17.9923 2.15833 17.709 2.5 17.709H17.5C17.8417 17.709 18.125 17.9923 18.125 18.334C18.125 18.6757 17.8417 18.959 17.5 18.959Z" fill="#334155"/>
</svg>
