<svg width="78" height="80" viewBox="0 0 78 80" fill="none" xmlns="http://www.w3.org/2000/svg">
<path d="M60.6739 22.5474C60.4005 22.5084 60.1272 22.5084 59.8538 22.5474C53.8001 22.3521 48.9961 17.3893 48.9961 11.2933C48.9961 5.08001 54.0344 0 60.2834 0C66.4933 0 71.5706 5.04093 71.5706 11.2933C71.5315 17.3893 66.7276 22.3521 60.6739 22.5474Z" fill="white"/>
<path d="M73.406 49.6275C69.0317 52.5583 62.8999 53.6524 57.2367 52.9099C58.7209 49.7056 59.502 46.1496 59.5411 42.3982C59.5411 38.4905 58.6818 34.7782 57.0415 31.5348C62.8218 30.7533 68.9536 31.8474 73.367 34.7782C79.5378 38.8422 79.5378 45.5244 73.406 49.6275Z" fill="white"/>
<path d="M17.3606 22.5474C17.634 22.5084 17.9074 22.5084 18.1808 22.5474C24.2345 22.3521 29.0384 17.3893 29.0384 11.2933C29.0384 5.04093 24.0002 0 17.7512 0C11.5413 0 6.50301 5.04093 6.50301 11.2933C6.50301 17.3893 11.3069 22.3521 17.3606 22.5474Z" fill="white"/>
<path d="M17.7901 42.399C17.7901 46.1894 18.6103 49.7845 20.0944 53.0279C14.5875 53.6141 8.84622 52.4418 4.62816 49.6673C-1.54272 45.5642 -1.54272 38.882 4.62816 34.7789C8.80717 31.9654 14.7046 30.8322 20.2506 31.4574C18.6493 34.7399 17.7901 38.4522 17.7901 42.399Z" fill="white"/>
<path d="M39.5446 54.1998C39.2321 54.1607 38.8806 54.1607 38.5291 54.1998C31.3428 53.9654 25.6015 48.0647 25.6015 40.7964C25.6406 33.3718 31.6162 27.3539 39.0759 27.3539C46.4966 27.3539 52.5112 33.3718 52.5112 40.7964C52.4722 48.0647 46.77 53.9654 39.5446 54.1998Z" fill="white"/>
<path d="M26.8513 62.2883C20.9538 66.2351 20.9538 72.7219 26.8513 76.6296C33.569 81.1235 44.5828 81.1235 51.3005 76.6296C57.198 72.6828 57.198 66.196 51.3005 62.2883C44.6219 57.7945 33.608 57.7945 26.8513 62.2883Z" fill="white"/>
</svg>
