<svg width="16" height="16" viewBox="0 0 16 16" fill="none" xmlns="http://www.w3.org/2000/svg">
<path d="M7.05586 12.2245H1.70032" stroke="#010101" stroke-width="1.5" stroke-linecap="round" stroke-linejoin="round"/>
<path fill-rule="evenodd" clip-rule="evenodd" d="M15.1999 12.2246C15.1999 13.3708 14.2453 14.3 13.0678 14.3C11.8902 14.3 10.9357 13.3708 10.9357 12.2246C10.9357 11.0775 11.8902 10.1491 13.0678 10.1491C14.2453 10.1491 15.1999 11.0775 15.1999 12.2246Z" stroke="#010101" stroke-width="1.5" stroke-linecap="round" stroke-linejoin="round"/>
<path d="M9.84351 3.77545H15.1999" stroke="#010101" stroke-width="1.5" stroke-linecap="round" stroke-linejoin="round"/>
<path fill-rule="evenodd" clip-rule="evenodd" d="M1.69995 3.77544C1.69995 4.92253 2.65453 5.85088 3.83207 5.85088C5.00961 5.85088 5.96418 4.92253 5.96418 3.77544C5.96418 2.6292 5.00961 1.7 3.83207 1.7C2.65453 1.7 1.69995 2.6292 1.69995 3.77544Z" stroke="#010101" stroke-width="1.5" stroke-linecap="round" stroke-linejoin="round"/>
</svg>
