<svg width="80" height="80" viewBox="0 0 80 80" fill="none" xmlns="http://www.w3.org/2000/svg">
<path d="M62.5641 0.0370472C61.0043 -0.0092327 59.451 0.258064 57.9964 0.823102C56.5417 1.38814 55.2152 2.23943 54.0955 3.32653C52.9758 4.41363 52.0857 5.71442 51.4778 7.15186C50.87 8.58929 50.5568 10.1341 50.5568 11.6948C50.5568 13.2555 50.87 14.8004 51.4778 16.2378C52.0857 17.6752 52.9758 18.976 54.0955 20.0631C55.2152 21.1502 56.5417 22.0015 57.9964 22.5666C59.451 23.1316 61.0043 23.3989 62.5641 23.3526H63.0256C63.1108 23.3419 63.1969 23.3419 63.2821 23.3526C66.2498 23.0863 69.0036 21.6959 70.9801 19.4659C72.9566 17.2359 74.0064 14.3349 73.9147 11.3563C73.823 8.3777 72.5967 5.54674 70.4867 3.4426C68.3767 1.33846 65.5426 0.120193 62.5641 0.0370472ZM62.3282 19.6804C60.2482 19.5787 58.2903 18.6677 56.8727 17.142C55.455 15.6162 54.69 13.5967 54.7408 11.5145C54.7917 9.43237 55.6545 7.45261 57.1449 5.99796C58.6354 4.54331 60.6354 3.72906 62.718 3.72906C64.8005 3.72906 66.8005 4.54331 68.291 5.99796C69.7814 7.45261 70.6442 9.43237 70.6951 11.5145C70.7459 13.5967 69.9809 15.6162 68.5632 17.142C67.1456 18.6677 65.1877 19.5787 63.1077 19.6804H62.3282Z" fill="#D39752"/>
<path d="M80 39.9905C80 43.0677 78.2256 45.9912 75.1487 48.0632C71.516 50.33 67.307 51.5016 63.0256 51.438C61.585 51.443 60.1469 51.3194 58.7282 51.0687C58.2641 51.0005 57.8437 50.7573 57.5533 50.3889C57.2629 50.0205 57.1245 49.5549 57.1665 49.0877C57.2084 48.6204 57.4277 48.187 57.7791 47.8763C58.1306 47.5656 58.5876 47.4013 59.0564 47.417C59.1622 47.4069 59.2686 47.4069 59.3744 47.417C60.5771 47.6225 61.7952 47.7255 63.0154 47.7247C66.5747 47.8053 70.0808 46.8503 73.1077 44.9757C75.159 43.6114 76.318 41.8266 76.318 39.9597C76.318 38.0928 75.1795 36.3798 73.1077 34.9847C70.0809 33.1283 66.5858 32.1779 63.0359 32.246C61.7634 32.2457 60.4934 32.359 59.241 32.5845C59.125 32.5944 59.0083 32.5944 58.8923 32.5845C58.4649 32.5762 58.0538 32.4189 57.7299 32.1399C57.4059 31.8609 57.1895 31.4776 57.118 31.0561C57.0547 30.5908 57.1682 30.1186 57.4359 29.7328C57.5745 29.5352 57.7511 29.3672 57.9554 29.2386C58.1597 29.11 58.3875 29.0235 58.6257 28.984C60.0954 28.7262 61.5847 28.5958 63.0769 28.5942C67.3411 28.5167 71.5356 29.6822 75.1487 31.9485C78.2256 34.0513 80 36.9747 80 39.9905Z" fill="#D39752"/>
<path d="M14.6974 23.0449C17.6631 23.6957 20.7656 23.1662 23.3476 21.5685C25.9296 19.9708 27.7882 17.4306 28.5296 14.4859C29.271 11.5413 28.837 8.42361 27.3195 5.79352C25.8019 3.16342 23.3202 1.22755 20.4 0.396065L19.5795 0.20117C16.5838 -0.362055 13.4866 0.268086 10.949 1.95709C8.41135 3.6461 6.63434 6.26019 5.9972 9.24141C5.36007 12.2226 5.91328 15.3348 7.53877 17.9138C9.16425 20.4927 11.7332 22.3341 14.6974 23.0449ZM18.4615 3.6785H18.6667L19.0154 3.78108H19.0872L19.5385 3.90417C21.0386 4.3475 22.3761 5.22041 23.386 6.41517C24.3958 7.60993 25.0338 9.07425 25.2211 10.6274C25.4085 12.1806 25.137 13.7547 24.4403 15.1553C23.7435 16.556 22.652 17.722 21.3003 18.5094C19.9486 19.2969 18.396 19.6712 16.834 19.5864C15.2721 19.5015 13.7692 18.9611 12.5107 18.0319C11.2523 17.1027 10.2934 15.8253 9.75249 14.3574C9.21155 12.8895 9.11218 11.2953 9.46667 9.77153C9.91298 7.80397 11.0906 6.07974 12.7609 4.94833C14.4311 3.81691 16.469 3.36297 18.4615 3.6785Z" fill="#D39752"/>
<path d="M3.68205 39.9905C3.68205 41.8266 4.82051 43.6114 6.89231 45.0064C9.91918 46.881 13.4253 47.8361 16.9846 47.7555C18.2048 47.7562 19.4229 47.6533 20.6256 47.4477C20.728 47.4377 20.831 47.4377 20.9333 47.4477C21.3677 47.4492 21.7882 47.6014 22.123 47.8782C22.4577 48.155 22.6862 48.5394 22.7692 48.9659C22.8105 49.205 22.8041 49.4499 22.7507 49.6866C22.6972 49.9232 22.5976 50.1471 22.4576 50.3452C22.3175 50.5434 22.1398 50.712 21.9346 50.8414C21.7294 50.9708 21.5007 51.0585 21.2615 51.0995C19.8464 51.3507 18.4116 51.4743 16.9744 51.4687C12.696 51.5339 8.48993 50.3621 4.86154 48.094C1.77436 46.0322 0 43.0677 0 39.9905C0 36.9132 1.77436 34.0205 4.85128 31.9587C8.46571 29.6859 12.6645 28.5166 16.9333 28.5942C18.4255 28.5958 19.9148 28.7262 21.3846 28.984C21.6209 29.0248 21.8468 29.1119 22.0493 29.2404C22.2517 29.3689 22.4267 29.5363 22.5641 29.7328C22.8438 30.1364 22.9543 30.6335 22.8718 31.1176C22.8002 31.5391 22.5838 31.9225 22.2599 32.2015C21.936 32.4805 21.5249 32.6377 21.0974 32.646C20.9782 32.6605 20.8577 32.6605 20.7385 32.646C19.4921 32.4286 18.2293 32.3187 16.9641 32.3178C13.4099 32.2408 9.90897 33.1918 6.88205 35.0565C4.82051 36.4106 3.68205 38.1749 3.68205 39.9905Z" fill="#D39752"/>
<path d="M39.6718 28.5327C36.6394 28.6114 33.7571 29.8686 31.6363 32.0377C29.5156 34.2068 28.3233 37.1169 28.3127 40.1506C28.302 43.1844 29.4737 46.1028 31.5791 48.2868C33.6846 50.4707 36.558 51.7483 39.5897 51.8483H40.0513C40.1364 51.8375 40.2226 51.8375 40.3077 51.8483C43.3363 51.6691 46.1763 50.3186 48.227 48.0825C50.2777 45.8464 51.3782 42.9002 51.2955 39.8671C51.2129 36.834 49.9537 33.952 47.7843 31.8309C45.615 29.7098 42.7056 28.5159 39.6718 28.5019V28.5327ZM39.4051 48.1966C37.3251 48.0948 35.3672 47.1838 33.9496 45.6581C32.532 44.1324 31.7669 42.1129 31.8178 40.0307C31.8686 37.9485 32.7314 35.9688 34.2219 34.5141C35.7123 33.0595 37.7123 32.2452 39.7949 32.2452C41.8774 32.2452 43.8774 33.0595 45.3679 34.5141C46.8583 35.9688 47.7211 37.9485 47.772 40.0307C47.8228 42.1129 47.0578 44.1324 45.6402 45.6581C44.2225 47.1838 42.2647 48.0948 40.1846 48.1966H39.4051Z" fill="#D39752"/>
<path d="M52.2154 60.5057C48.5798 58.2281 44.3611 57.0557 40.0718 57.1309C35.7731 57.0573 31.5449 58.2294 27.8974 60.5057C24.8205 62.5572 23.0462 65.4909 23.0462 68.5784C23.0462 71.666 24.8103 74.5484 27.8974 76.6101C31.5282 78.9082 35.7555 80.0856 40.0513 79.9952C44.3518 80.0633 48.5789 78.8763 52.2154 76.5794C55.2923 74.5278 57.0667 71.5942 57.0667 68.5066C57.0667 65.4191 55.3026 62.5572 52.2154 60.5057ZM50.1641 73.5944C47.1203 75.4909 43.5847 76.4471 40 76.3434C36.4298 76.4254 32.914 75.459 29.8872 73.5636C27.8359 72.1789 26.6872 70.4145 26.6872 68.5989C26.6872 66.7833 27.8256 64.9472 29.8974 63.583C32.9444 61.7014 36.4712 60.743 40.0513 60.8237C43.6141 60.7256 47.1261 61.6858 50.1436 63.583C52.1949 64.978 53.3538 66.7423 53.3538 68.5579C53.3538 70.3735 52.2051 72.2096 50.1333 73.5739L50.1641 73.5944Z" fill="#D39752"/>
</svg>
